<svg width="210" height="47" viewBox="0 0 210 47" fill="none" xmlns="http://www.w3.org/2000/svg">
<g clip-path="url(#clip0_564_1130)">
<path d="M95.0568 -0.00056839H47.5273V47H83.1745C89.7371 47 95.0568 41.7394 95.0568 35.2498V-0.00056839Z" fill="#404C4F"/>
<path d="M11.8824 -0.00056839C5.31982 -0.00056839 0 5.26002 0 11.7495V35.2498C0 41.7394 5.31982 47 11.8824 47H47.5295V-0.00056839H11.8824Z" fill="#9CD747"/>
<path d="M12.9905 18.7672C12.6018 17.0859 14.2982 15.599 16.4915 15.599C18.4676 15.599 20.4483 16.0371 21.2019 18.7612H23.735V22.9197C20.5768 20.3521 13.7299 21.9629 12.9905 18.7672ZM39.2748 17.6161H33.5681L28.1393 23.4953V11.7492H23.735V14.5953C23.5913 14.4115 23.4398 14.2295 23.2697 14.0516C21.6683 12.3749 19.3604 11.5248 16.4104 11.5248C12.9984 11.5248 11.0582 13.0349 10.0315 14.3015C8.75625 15.8738 8.18728 18.02 8.5813 19.7683C9.6016 24.2955 13.8498 25.0184 16.97 25.4196C19.434 25.7365 21.7909 26.1791 21.728 28.3502C21.6631 30.6038 19.0942 31.1578 17.4081 31.1578C13.0166 31.1578 12.868 27.9483 12.868 27.9483H8.14505C8.21406 29.1534 8.58281 31.0885 10.0831 32.7496C11.7262 34.5688 14.1911 35.4912 17.4081 35.4912C19.8762 35.4912 22.1238 34.6959 23.735 33.2843V35.2246H28.1393V29.6799L29.6981 27.9938L34.1473 35.2246H39.2733L32.7993 24.6343L39.2748 17.6161Z" fill="#404C4F"/>
<path d="M79.893 12.5833C77.0911 12.5833 72.2117 14.9885 67.4319 19.7153C61.2682 25.8103 59.0074 32.0697 60.8334 33.8755C62.6595 35.682 68.9902 33.446 75.1531 27.3509C81.3171 21.2558 83.5775 14.9964 81.7515 13.1906C81.3416 12.785 80.7041 12.5833 79.893 12.5833ZM62.6931 35.8535C61.5159 35.8535 60.5405 35.5295 59.8509 34.8476C57.135 32.1619 60.0333 25.0881 66.4489 18.7436C72.8644 12.3994 80.0167 9.53295 82.7345 12.2186C85.45 14.9043 82.552 21.9784 76.1361 28.3225C71.3498 33.0556 66.1521 35.8535 62.6931 35.8535Z" fill="white"/>
<path d="M62.6919 12.5833C61.8809 12.5833 61.2436 12.785 60.8334 13.1906C59.0074 14.9964 61.2682 21.2558 67.4319 27.3509C73.5951 33.4452 79.9243 35.682 81.7515 33.8755C83.5775 32.0697 81.3171 25.8103 75.1531 19.7153C70.3736 14.9893 65.4938 12.5833 62.6919 12.5833ZM79.8919 35.8535C76.4332 35.8535 71.2359 33.0559 66.4489 28.3225C60.0333 21.9784 57.135 14.9043 59.8509 12.2186C62.5667 9.53371 69.7198 12.3987 76.1361 18.7436C82.552 25.0881 85.45 32.1619 82.7345 34.8476C82.0444 35.5295 81.069 35.8535 79.8919 35.8535Z" fill="#9CD747"/>
<path d="M106.27 32.2851C106.566 32.3828 106.911 32.4312 107.305 32.4312C107.798 32.4312 108.193 32.2851 108.488 31.9925C108.785 31.6997 108.982 31.3101 109.08 30.8712L102.819 17.7549H106.985L111.003 27.1654L114.529 17.7549H118.498L112.852 30.6762C112.113 32.3828 111.348 33.6505 110.511 34.4547C109.672 35.284 108.76 35.6982 107.749 35.6982C107.403 35.6982 107.132 35.6982 106.911 35.6494C106.664 35.6251 106.467 35.5763 106.294 35.5275L105.826 35.3813C105.703 35.3325 105.579 35.284 105.457 35.2594V31.944C105.679 32.0901 105.949 32.212 106.27 32.2851Z" fill="#404C4F"/>
<path d="M125.286 30.3341C125.039 30.4072 124.767 30.4561 124.472 30.5291C124.176 30.578 123.855 30.6268 123.535 30.6511C123.214 30.6999 122.894 30.6999 122.598 30.6999C121.834 30.6999 121.193 30.6268 120.601 30.5049C120.034 30.3583 119.542 30.1633 119.147 29.8711C118.752 29.5783 118.457 29.1883 118.259 28.7006C118.062 28.2375 117.963 27.6526 117.963 26.9698V22.289H121.366V26.3118C121.366 26.6772 121.415 26.9941 121.514 27.2133C121.587 27.4576 121.736 27.6526 121.932 27.7987C122.129 27.9449 122.351 28.0426 122.648 28.0914C122.943 28.1399 123.289 28.1645 123.682 28.1645C124.275 28.1645 124.718 28.1156 125.064 28.018C125.408 27.8964 125.68 27.7745 125.877 27.6526V22.289H129.279V35.2588H125.877V30.1391C125.729 30.1876 125.532 30.2611 125.286 30.3341Z" fill="#404C4F"/>
<path d="M138.352 29.2132C138.13 29.3109 137.859 29.4086 137.514 29.457L136.601 29.6278C136.208 29.7009 135.862 29.7739 135.567 29.8717C135.27 29.9689 135.024 30.0909 134.826 30.2374C134.629 30.4078 134.482 30.6032 134.383 30.8225C134.285 31.0417 134.236 31.3101 134.236 31.6513C134.236 31.9194 134.285 32.1633 134.358 32.3583C134.457 32.5778 134.58 32.724 134.753 32.8702C134.901 32.9921 135.073 33.114 135.27 33.1628C135.492 33.2359 135.714 33.2602 135.96 33.2602C136.084 33.2602 136.257 33.2359 136.454 33.2113C136.652 33.1871 136.848 33.1382 137.095 33.0652C137.317 32.9674 137.539 32.8702 137.761 32.724C137.983 32.6021 138.18 32.407 138.352 32.1874C138.549 31.9683 138.697 31.6998 138.796 31.3586C138.895 31.0417 138.968 30.6762 138.968 30.2374V28.9209C138.771 29.0428 138.549 29.1401 138.352 29.2132ZM142.445 33.6506C142.469 33.894 142.543 34.1136 142.617 34.2356C142.691 34.406 142.765 34.5036 142.864 34.5767C142.962 34.6498 143.037 34.6986 143.159 34.7233V35.2594H139.388L139.19 34.6498C139.092 34.406 139.067 34.1136 139.067 33.7478L138.303 34.5036C138.032 34.7233 137.761 34.9183 137.44 35.0886C137.12 35.2594 136.774 35.4055 136.355 35.5033C135.936 35.6005 135.443 35.6494 134.876 35.6494C134.285 35.6494 133.742 35.5763 133.249 35.4055C132.756 35.2348 132.337 34.9667 131.967 34.6498C131.622 34.3086 131.326 33.894 131.128 33.3821C130.931 32.8944 130.833 32.3098 130.833 31.6513C130.833 31.1147 130.906 30.6275 131.079 30.1639C131.252 29.7009 131.498 29.3109 131.794 28.9698C132.115 28.6281 132.485 28.3359 132.929 28.1162C133.373 27.8724 133.865 27.7262 134.432 27.6532L137.761 27.1655C137.884 27.1408 138.007 27.1408 138.155 27.0924C138.303 27.0678 138.426 27.0193 138.549 26.9217C138.673 26.8486 138.771 26.7508 138.846 26.6293C138.919 26.4828 138.968 26.3124 138.968 26.0928C138.968 25.8731 138.919 25.6781 138.87 25.5078C138.796 25.3128 138.673 25.1662 138.525 25.0443C138.352 24.8981 138.155 24.8009 137.884 24.7277C137.613 24.6547 137.267 24.6301 136.873 24.6301C136.404 24.6301 136.059 24.6789 135.789 24.752C135.492 24.8493 135.27 24.9959 135.123 25.142C134.95 25.3128 134.826 25.5078 134.753 25.7028L134.605 26.4097H131.203C131.203 26.2635 131.228 26.0439 131.277 25.7516C131.326 25.4831 131.425 25.1662 131.572 24.8251C131.696 24.5081 131.918 24.1666 132.164 23.8254C132.41 23.4843 132.732 23.1673 133.175 22.8747C133.569 22.6065 134.087 22.3628 134.679 22.192C135.27 22.0216 135.96 21.9239 136.799 21.8996C137.958 21.8996 138.919 22.0216 139.659 22.2408C140.374 22.4846 140.941 22.8015 141.36 23.1673C141.755 23.5573 142.025 23.9716 142.174 24.4351C142.296 24.8981 142.371 25.3616 142.371 25.8247V32.6994C142.371 33.0898 142.396 33.4063 142.445 33.6506Z" fill="#404C4F"/>
<path d="M151.957 25.9709C151.858 25.7028 151.709 25.4831 151.538 25.3128C151.34 25.1177 151.119 24.9959 150.872 24.8981C150.6 24.8251 150.28 24.7762 149.91 24.7762C149.344 24.7762 148.9 24.8981 148.554 25.1662C148.209 25.4346 147.938 25.7516 147.765 26.1417C147.568 26.5562 147.469 26.9947 147.396 27.4582C147.346 27.9212 147.297 28.3601 147.297 28.7744C147.297 29.1889 147.321 29.652 147.371 30.1155C147.42 30.6032 147.519 31.0175 147.716 31.4075C147.889 31.7975 148.135 32.139 148.505 32.3828C148.85 32.6509 149.318 32.7728 149.91 32.7728C150.305 32.7728 150.65 32.6994 150.946 32.529C151.217 32.3828 151.463 32.1874 151.66 31.9683C151.858 31.7244 152.006 31.4805 152.104 31.2125C152.179 30.9686 152.228 30.7247 152.228 30.5055H155.778C155.778 30.7247 155.753 30.9932 155.68 31.3344C155.58 31.6998 155.457 32.0413 155.285 32.4313C155.112 32.7971 154.866 33.1871 154.595 33.5771C154.274 33.9671 153.929 34.3086 153.485 34.601C153.041 34.9183 152.548 35.1618 151.957 35.3571C151.365 35.5521 150.675 35.6494 149.91 35.6494C148.924 35.6494 148.037 35.5033 147.272 35.2105C146.508 34.8936 145.867 34.4548 145.349 33.8697C144.832 33.2848 144.437 32.5778 144.166 31.6998C143.895 30.8467 143.747 29.8717 143.747 28.7744C143.747 27.6532 143.895 26.6778 144.19 25.8247C144.486 24.9959 144.905 24.2643 145.448 23.6793C145.99 23.0943 146.631 22.6554 147.396 22.3628C148.135 22.0458 148.998 21.8996 149.91 21.8996C150.305 21.8996 150.724 21.9485 151.168 21.997C151.587 22.0458 152.006 22.1677 152.425 22.3139C152.844 22.4846 153.238 22.6796 153.633 22.9235C154.003 23.1673 154.347 23.4843 154.668 23.8501C154.964 24.2158 155.21 24.6547 155.408 25.142C155.605 25.6297 155.729 26.2147 155.778 26.8728H152.228C152.153 26.5317 152.08 26.2147 151.957 25.9709Z" fill="#404C4F"/>
<path d="M167.653 22.289V25.0195H163.684V35.2588H160.283V25.0195H156.313V22.289H167.653Z" fill="#404C4F"/>
<path d="M177.114 26.9698V22.289H180.515V35.2588H177.114V29.7003H172.109V35.2588H168.707V22.289H172.109V26.9698H177.114Z" fill="#404C4F"/>
<path d="M186.248 30.2853L191.031 22.289H194.606V35.2588H191.204V27.433H191.154L186.519 35.2588H182.796V22.289H186.199V30.2853H186.248Z" fill="#404C4F"/>
<path d="M205.239 22.289H209.775L204.351 27.6767L209.997 35.2588H205.56L201.713 29.7733L200.333 31.163V35.2588H196.93V22.289H200.333V27.2133L205.239 22.289Z" fill="#404C4F"/>
</g>
<defs>
<clipPath id="clip0_564_1130">
<rect width="210" height="47" fill="white"/>
</clipPath>
</defs>
</svg>
