<svg width="80" height="80" viewBox="0 0 80 80" fill="none" xmlns="http://www.w3.org/2000/svg">
<path d="M80 40C80 62.0904 62.0904 80 40 80C17.9096 80 0 62.0966 0 40C0 17.9096 17.9096 0 40 0C62.0904 0 80 17.9096 80 40Z" fill="white"/>
<path d="M41.6339 60.6803H32.4772V23.2397H41.6339V60.6803ZM37.6892 41.4786H46.1998C47.8957 41.4786 49.25 41.0313 50.2625 40.143C51.2751 39.2547 51.7783 38.0619 51.7783 36.5772V35.3286C51.7783 33.8439 51.2751 32.6636 50.2625 31.8001C49.25 30.9366 47.8771 30.5017 46.1501 30.5017H37.6892V23.2397H47.3925C50.0886 23.2397 52.4492 23.7181 54.462 24.6685C56.4747 25.619 58.0277 26.9732 59.1211 28.7313C60.2144 30.4893 60.7548 32.5393 60.7548 34.8937V36.9686C60.7548 39.3354 60.2082 41.4165 59.1211 43.1932C58.0339 44.976 56.4809 46.3427 54.462 47.3056C52.4492 48.2685 50.0886 48.7468 47.3925 48.7468H37.6892V41.4786Z" fill="#1E4295"/>
<path d="M30.8495 23.2642H21.8792V31.1784H30.8495V23.2642Z" fill="#D52E1E"/>
</svg>
