<svg width="250" height="47" viewBox="0 0 250 47" fill="none" xmlns="http://www.w3.org/2000/svg">
<g clip-path="url(#clip0_494_765)">
<path d="M156.639 22.6406C146.876 22.6406 143.011 28.7375 143.011 34.7088C143.011 40.6802 146.876 46.7771 156.639 46.7771C166.401 46.7771 170.266 40.6802 170.266 34.7088C170.259 28.7442 166.401 22.6406 156.639 22.6406ZM156.639 42.7434C150.286 42.7434 148.094 38.207 148.094 34.7155C148.094 31.224 150.286 26.6876 156.639 26.6876C162.992 26.6876 165.183 31.224 165.183 34.7155C165.183 38.207 162.992 42.7434 156.639 42.7434Z" fill="black"/>
<path d="M88.8 23.1436H83.915V46.288H88.8V23.1436Z" fill="black"/>
<path d="M66.2467 23.1436H61.3555V46.288H78.7017V42.5189H66.2467V23.1436Z" fill="black"/>
<path d="M101.714 23.1436H96.8232V46.288H114.17V42.5189H101.714V23.1436Z" fill="black"/>
<path d="M119.373 46.288H138.806V42.5189H124.264V36.6005H137.667V32.8312H124.264V26.9128H138.806V23.1436H119.373V46.288Z" fill="black"/>
<path d="M243.904 23.1436L236.754 31.4161L229.605 23.1436H223.502L234.313 35.1126V46.288H239.197V35.1126L250 23.1436H243.904Z" fill="black"/>
<path d="M222.742 23.1436H216.639L206.35 34.1338V23.1436H201.458V46.288H206.35V34.696L217.659 46.288H223.887L211.906 34.2529L222.742 23.1436Z" fill="black"/>
<path d="M174.78 11.5703H151.739C161.161 12.5754 168.046 13.0185 170.83 14.4799C173.602 15.9347 173.997 18.8245 174.78 23.1425V11.5703Z" fill="black"/>
<path d="M39.2548 23.1436L28.4321 46.288H33.9488L36.2266 41.0442H49.1361L51.427 46.288H56.9437L46.1209 23.1436H39.2548ZM37.8723 37.2816L42.3818 26.9128H42.9874L47.4969 37.2816H37.8723Z" fill="black"/>
<path d="M177.678 8.66266C176.013 6.98965 175.564 4.31811 174.781 0V11.5723H186.302C182.003 10.7853 179.344 10.3357 177.678 8.66266Z" fill="black"/>
<path d="M20.1312 42.4149C18.7686 42.6595 17.3071 42.8183 15.7732 42.8183C8.433 42.8183 5.17434 38.5861 5.17434 34.7176C5.17434 31.0476 8.10381 26.6171 15.7732 26.6171C18.9462 26.6171 21.8231 27.3048 24.1008 27.9859V23.8596C21.8231 23.2115 18.9462 22.6494 15.7732 22.6494C4.21321 22.6494 0 28.9315 0 34.7176C0 40.5038 4.21321 46.7859 15.7666 46.7859C19.3873 46.7859 22.613 46.0254 25.0159 45.298V34.7176H20.1312V42.4149Z" fill="black"/>
<path d="M188.309 33.1636C182.911 31.808 180.114 31.4444 180.114 29.3944C180.114 27.9396 181.858 26.6171 186.236 26.6171C189.336 26.6171 192.22 27.4106 194.314 28.0918V23.9918C192.411 23.3834 189.323 22.6494 186.236 22.6494C177.086 22.6494 174.781 26.8815 174.781 29.3944C174.781 32.9983 177.086 34.8499 182.549 36.1394C188.079 37.4288 190.746 37.9909 190.746 39.9748C190.746 41.2312 189.561 42.686 184.327 42.686C181.002 42.686 176.558 41.5949 174.781 40.9335V45.1657C176.558 45.8271 181.002 46.7859 184.327 46.7859C192.489 46.7859 196.078 43.9093 196.078 39.9417C196.078 37.495 195.091 34.8499 188.309 33.1636Z" fill="black"/>
</g>
<defs>
<clipPath id="clip0_494_765">
<rect width="250" height="47" fill="white"/>
</clipPath>
</defs>
</svg>
