<svg width="179" height="56" viewBox="0 0 179 56" fill="none" xmlns="http://www.w3.org/2000/svg">
<mask id="mask0_494_746" style="mask-type:luminance" maskUnits="userSpaceOnUse" x="0" y="0" width="179" height="56">
<path d="M179 0H0V56H179V0Z" fill="white"/>
</mask>
<g mask="url(#mask0_494_746)">
<path d="M26.9832 27.6409C30.7002 25.2677 33.316 20.8005 33.316 15.7749C33.316 6.28203 25.8818 0 16.3826 0C6.88346 0 0 6.28203 0 17.0313V25.1281H6.88346V17.0313C6.88346 10.6097 11.2889 6.98003 16.5203 6.98003C21.7517 6.98003 25.7441 10.7493 25.7441 15.9145C25.7441 21.0797 21.6141 25.2677 16.245 25.2677H6.88346V42.8574H13.7669V31.4101H16.3826C23.1284 31.4101 27.5338 36.715 27.6715 42.8574H34.8303C34.6926 36.5754 31.8016 30.4329 26.9832 27.6409Z" fill="#BD7DFF"/>
<path d="M172.5 12.1454V16.473C170.711 13.681 167.407 11.8662 162.863 11.8662C154.466 11.8662 148.271 18.7066 148.271 27.3619C148.271 36.0171 154.466 42.8575 162.863 42.8575C167.269 42.8575 170.298 41.0427 172.5 38.3903V42.5783H178.971V12.1454H172.5ZM163.689 36.2963C158.871 36.2963 155.292 32.3875 155.292 27.3619C155.292 22.3362 158.871 18.4274 163.689 18.4274C168.508 18.4274 172.225 22.3362 172.225 27.3619C172.225 32.3875 168.508 36.2963 163.689 36.2963Z" fill="#BD7DFF"/>
<path d="M126.243 27.9204C126.243 33.9232 123.214 36.1568 119.36 36.1568C115.505 36.1568 112.476 33.9232 112.476 27.9204V12.1455H105.593V27.6412C105.593 37.832 110.824 42.8576 119.36 42.8576C128.033 42.8576 133.127 37.832 133.127 27.6412V12.1455H126.243V27.9204Z" fill="#BD7DFF"/>
<path d="M51.7638 11.8662C43.2283 11.8662 36.7578 18.8462 36.7578 27.5015C36.7578 36.1567 43.3659 42.8575 52.0391 42.8575C57.2705 42.8575 61.1253 41.0427 64.2917 37.6923L60.5746 33.2251C58.5096 35.0399 55.8938 36.4359 52.3144 36.4359C48.735 36.4359 45.1556 34.6211 44.1919 30.5727H66.7697C67.045 29.4559 67.1827 28.6183 67.1827 26.8035C67.045 18.2878 60.2992 11.8662 51.7638 11.8662ZM43.6413 25.1283C44.605 21.0798 47.909 18.4274 52.1768 18.4274C56.4445 18.4274 59.3356 21.0798 60.1616 25.1283H43.6413Z" fill="#BD7DFF"/>
<path d="M144.552 0.279297H137.669V42.7179H144.552V0.279297Z" fill="#BD7DFF"/>
<path d="M94.4407 16.6127C92.9264 13.9603 89.347 12.0059 84.8039 12.0059C76.8191 12.0059 70.2109 18.8463 70.2109 27.5016C70.2109 36.1568 76.8191 42.7181 84.8039 42.7181C89.2093 42.7181 91.9627 41.4616 94.0277 38.6696V41.4616C94.0277 47.4645 89.8976 49.6981 85.7676 49.6981C81.7752 49.6981 78.4711 47.7437 77.9204 43.2765H71.1746C71.45 50.9545 77.6451 55.9801 85.7676 55.9801C93.89 55.9801 100.911 51.2337 100.911 41.0428V12.1455H94.4407V16.6127ZM85.4922 36.0172C80.6738 36.0172 77.0944 32.3876 77.0944 27.362C77.0944 22.3364 80.6738 18.4275 85.4922 18.4275C90.3106 18.4275 94.0277 22.3364 94.0277 27.362C94.0277 32.3876 90.4483 36.0172 85.4922 36.0172Z" fill="#BD7DFF"/>
</g>
</svg>
