<svg width="217" height="72" viewBox="0 0 217 72" fill="none" xmlns="http://www.w3.org/2000/svg">
<g clip-path="url(#clip0_494_757)">
<path d="M96.2523 45.648V41.7C96.6405 42.0415 97.0693 42.3337 97.5289 42.57C98.0302 42.828 98.56 43.0485 99.1152 43.23C99.6734 43.4025 100.229 43.536 100.785 43.6335C101.342 43.7295 101.855 43.779 102.324 43.779C103.961 43.779 105.178 43.509 105.975 42.972C106.782 42.435 107.186 41.6565 107.186 40.6365C107.186 40.089 107.05 39.6165 106.776 39.2175C106.482 38.7776 106.104 38.4004 105.664 38.1075C105.184 37.773 104.617 37.4565 103.961 37.155C103.318 36.8445 102.625 36.522 101.882 36.189C101.125 35.7923 100.383 35.3675 99.657 34.9155C99.0046 34.5138 98.4005 34.0382 97.8566 33.498C97.3598 32.9799 96.9554 32.3802 96.6609 31.725C96.3765 31.071 96.2358 30.303 96.2358 29.421C96.2358 28.3365 96.4813 27.396 96.9721 26.601C97.4692 25.8011 98.1405 25.1242 98.9356 24.621C99.7912 24.0789 100.732 23.6863 101.719 23.46C102.758 23.2019 103.825 23.0719 104.895 23.073C107.349 23.073 109.139 23.3475 110.263 23.895V27.681C108.931 26.736 107.219 26.2635 105.124 26.2635C104.542 26.2636 103.96 26.3173 103.388 26.424C102.821 26.532 102.307 26.709 101.849 26.9565C101.419 27.1891 101.044 27.5138 100.752 27.9075C100.468 28.293 100.327 28.761 100.327 29.3085C100.327 29.8245 100.437 30.27 100.655 30.6465C100.874 31.0215 101.189 31.3665 101.604 31.677C102.03 31.989 102.542 32.295 103.142 32.5965C103.755 32.886 104.458 33.2025 105.254 33.546C106.073 33.966 106.842 34.4055 107.562 34.8675C108.294 35.3295 108.931 35.8395 109.477 36.3975C110.034 36.957 110.47 37.5795 110.787 38.268C111.115 38.943 111.278 39.717 111.278 40.5885C111.278 41.7585 111.038 42.747 110.558 43.5525C110.077 44.358 109.428 45.0135 108.609 45.5175C107.748 46.0442 106.8 46.4153 105.811 46.614C104.707 46.8444 103.583 46.9581 102.456 46.953C102.062 46.953 101.577 46.92 100.998 46.8555C100.431 46.803 99.847 46.716 99.2469 46.5975C98.6483 46.491 98.0796 46.3575 97.5453 46.1955C97.0925 46.0698 96.6579 45.8858 96.2523 45.648ZM117.089 26.601C116.466 26.601 115.932 26.403 115.484 26.0055C115.272 25.8161 115.103 25.5824 114.99 25.3207C114.876 25.059 114.822 24.7757 114.829 24.4905C114.829 23.8785 115.047 23.3685 115.484 22.9605C115.92 22.5563 116.495 22.3365 117.089 22.347C117.732 22.347 118.279 22.551 118.725 22.9605C119.173 23.3685 119.396 23.8785 119.396 24.4905C119.396 25.071 119.172 25.5705 118.725 25.9905C118.278 26.3976 117.692 26.6162 117.089 26.601ZM118.971 46.566H115.173V30.066H118.971V46.566ZM139.202 45.2445C139.202 51.3045 136.108 54.333 129.922 54.333C127.738 54.333 125.835 53.973 124.209 53.253V49.8375C126.043 50.868 127.783 51.3825 129.431 51.3825C133.412 51.3825 135.405 49.455 135.405 45.5985V43.794H135.339C134.084 45.9 132.196 46.953 129.676 46.953C127.635 46.953 125.987 46.2225 124.733 44.7615C123.488 43.29 122.867 41.319 122.867 38.847C122.867 36.0435 123.537 33.8145 124.88 32.16C126.222 30.507 128.067 29.679 130.413 29.679C132.627 29.679 134.269 30.5715 135.339 32.3535H135.405V30.066H139.202V45.2445ZM135.437 39.009V36.8655C135.437 35.706 135.044 34.7175 134.259 33.9015C133.484 33.0735 132.512 32.6595 131.345 32.6595C129.905 32.6595 128.775 33.186 127.957 34.239C127.149 35.2815 126.745 36.7425 126.745 38.622C126.745 40.2435 127.134 41.544 127.907 42.522C128.693 43.488 129.73 43.971 131.017 43.971C132.327 43.971 133.391 43.509 134.209 42.5865C135.028 41.652 135.437 40.4595 135.437 39.009ZM159.073 46.566H155.275V37.269C155.275 34.185 154.167 32.6445 151.952 32.6445C150.796 32.6445 149.841 33.0735 149.088 33.9345C148.335 34.782 147.96 35.856 147.96 37.155V46.566H144.145V30.066H147.96V32.805H148.024C149.28 30.72 151.09 29.679 153.458 29.679C155.281 29.679 156.673 30.264 157.632 31.4355C158.593 32.595 159.073 34.2765 159.073 36.4785V46.566ZM165.293 46.92C164.676 46.934 164.078 46.7089 163.623 46.2915C163.165 45.8625 162.936 45.3525 162.936 44.7615C162.936 44.16 163.165 43.644 163.623 43.215C164.082 42.7845 164.639 42.57 165.293 42.57C165.959 42.57 166.52 42.7845 166.979 43.215C167.448 43.644 167.683 44.16 167.683 44.76C167.683 45.3525 167.448 45.8625 166.979 46.2915C166.52 46.7115 165.959 46.92 165.293 46.92ZM197.44 46.566H193.578V31.6125C193.578 30.3885 193.654 28.89 193.807 27.117H193.741C193.501 28.1265 193.287 28.8525 193.103 29.292L186.096 46.566H183.413L176.391 29.421C176.194 28.917 175.987 28.149 175.769 27.117H175.703C175.791 28.041 175.834 29.55 175.834 31.6455V46.566H172.232V23.46H177.716L183.887 38.847C184.356 40.029 184.663 40.9095 184.803 41.49H184.886C185.29 40.275 185.617 39.375 185.867 38.7825L192.153 23.46H197.44V46.566ZM217 39.33H205.575C205.619 40.857 206.093 42.033 206.999 42.8595C207.916 43.6875 209.17 44.1 210.764 44.1C212.554 44.1 214.196 43.575 215.691 42.522V45.534C214.163 46.479 212.144 46.953 209.634 46.953C207.168 46.953 205.231 46.206 203.823 44.7135C202.427 43.209 201.728 41.0985 201.728 38.3805C201.728 35.8125 202.498 33.723 204.037 32.112C205.586 30.4905 207.506 29.679 209.799 29.679C212.09 29.679 213.863 30.4035 215.117 31.854C216.373 33.3045 217 35.319 217 37.8975V39.3315V39.33ZM213.334 36.6885C213.323 35.346 213.001 34.3035 212.368 33.5625C211.735 32.811 210.861 32.4345 209.749 32.4345C208.658 32.4345 207.73 32.826 206.966 33.6105C206.213 34.395 205.749 35.421 205.575 36.6885H213.334Z" fill="#0FAAFF"/>
<path fill-rule="evenodd" clip-rule="evenodd" d="M60.9501 4.5H12.1894C7.98261 4.5 4.57197 7.8585 4.57197 12V60C4.57197 64.1415 7.98261 67.5 12.1894 67.5H60.9486C65.1569 67.5 68.5675 64.1415 68.5675 60V12C68.5675 7.8585 65.1569 4.5 60.9501 4.5ZM12.1894 0C5.45792 0 0 5.373 0 12V60C0 66.627 5.45792 72 12.1894 72H60.9486C67.6816 72 73.1395 66.627 73.1395 60V12C73.1395 5.373 67.6816 0 60.9501 0H12.1894Z" fill="#0FAAFF"/>
<path fill-rule="evenodd" clip-rule="evenodd" d="M29.5076 24.8759C29.1334 25.2449 28.8641 25.7054 28.7264 26.2094L25.4968 38.0819L34.4118 46.8569L46.471 43.6769C46.9828 43.5419 47.4497 43.2764 47.8239 42.9074L68.1081 22.9394C69.8568 21.2316 71.029 19.0186 71.4608 16.6101C71.8925 14.2016 71.5622 11.718 70.5161 9.5069L70.127 8.6864C68.9156 6.14145 66.8487 4.10537 64.2889 2.9354L63.4389 2.5454C58.8355 0.428904 53.3821 1.3739 49.7903 4.9094L29.5091 24.8744L29.5076 24.8759ZM29.3879 48.1829L24.1514 43.0274L22.2358 50.0684L29.3894 48.1829H29.3879Z" fill="#0FAAFF"/>
</g>
<defs>
<clipPath id="clip0_494_757">
<rect width="217" height="72" fill="white"/>
</clipPath>
</defs>
</svg>
