<svg width="179" height="64" viewBox="0 0 179 64" fill="none" xmlns="http://www.w3.org/2000/svg">
<path d="M89.1177 29.5821C87.8826 29.1074 86.267 28.9653 84.5091 28.9653H74.721V25.9273H91.5409V20.7061H67.8315V43.3001H83.8914C86.1246 43.3001 87.787 43.1104 89.0229 42.6353C91.6361 41.6386 93.3941 39.2179 93.3941 36.0376C93.3941 32.8101 91.7311 30.579 89.1177 29.5821ZM85.6967 37.4142C85.3168 37.5567 84.7941 37.6039 84.1286 37.6039H74.721V33.9964H84.1286C84.8891 33.9964 85.5066 34.0442 85.982 34.2814C86.5519 34.5662 86.8372 35.0884 86.8372 35.7526C86.8372 36.4173 86.5046 37.1294 85.6967 37.4142Z" fill="#333333"/>
<path d="M112.711 20.7061H102.639L93.3733 43.3001H101.166L102.448 40.0248H112.901L114.232 43.3001H121.977L112.711 20.7061ZM104.159 35.0407L107.438 25.9273H107.96L111.238 35.0407H104.159Z" fill="#333333"/>
<path d="M130.844 34.8988V43.3003H123.955V20.7061H130.844V28.9654H141.915V20.7061H148.804V43.3003H141.915V34.8988H130.844Z" fill="#333333"/>
<path d="M159.709 34.7565V43.3003H152.82V20.7061H159.709V29.2028H161.61L169.925 20.7061H178.572L167.549 31.5285L179 43.3003H169.83L161.61 34.7565H159.709Z" fill="#333333"/>
<path d="M0 7.5293H54.6421V33.1009C54.6421 40.1388 50.8839 46.6425 44.7832 50.1618L27.3212 60.2352L9.85906 50.1618C3.75819 46.6425 6.26268e-06 40.1388 6.26268e-06 33.1009L0 7.5293Z" fill="#FFDD2D"/>
<path fill-rule="evenodd" clip-rule="evenodd" d="M15.0737 20.7061V29.1911C16.2352 27.8808 18.3469 26.9942 20.7614 26.9942H23.3852V36.858C23.3852 39.4821 22.6714 42.0518 21.6125 43.3152H33.0257C31.9691 42.0504 31.257 39.484 31.257 36.863V26.9942H33.881C36.2954 26.9942 38.407 27.8808 39.5685 29.1911V20.7061H15.0737Z" fill="#333333"/>
</svg>
