<svg width="199" height="46" viewBox="0 0 199 46" fill="none" xmlns="http://www.w3.org/2000/svg">
<path d="M186.948 44.7579V42.4447H191.692V5.30833H186.948V2.95312H196.228V44.7579H186.948Z" fill="#EE5A00"/>
<path d="M176.738 37.3551C175.337 37.3551 174.12 37.0466 173.084 36.4299C172.049 35.785 171.252 34.8456 170.692 33.6119C170.159 32.3503 169.894 30.7941 169.894 28.9437V14.6442C169.894 12.5133 170.047 10.775 170.355 9.42915C170.692 8.08331 171.209 7.01786 171.909 6.23279C172.608 5.44773 173.519 4.8309 174.638 4.38229C175.814 3.90564 176.864 3.56918 177.787 3.37291C178.711 3.17665 179.593 2.96636 180.432 2.74205C181.3 2.48971 182.182 2.09718 183.077 1.56445L184.002 5.30755C183.218 5.81223 182.35 6.19073 181.398 6.44309C180.475 6.66739 179.55 6.87768 178.627 7.07395C177.702 7.24217 176.836 7.52256 176.023 7.91509C175.212 8.30762 174.583 8.91044 174.134 9.72355C173.686 10.5086 173.462 11.6021 173.462 13.004V16.9153C173.827 16.5508 174.303 16.2144 174.89 15.9059C175.478 15.5695 176.107 15.2891 176.779 15.0648C177.479 14.8405 178.137 14.7283 178.753 14.7283C179.76 14.7283 180.684 14.9947 181.523 15.5275C182.364 16.0602 183.036 16.9714 183.539 18.2611C184.043 19.5229 184.296 21.2471 184.296 23.4341V28.0605C184.296 30.612 183.973 32.5605 183.33 33.9063C182.685 35.2242 181.79 36.1355 180.642 36.6401C179.523 37.1168 178.221 37.3551 176.738 37.3551ZM177.158 34.0325C177.773 34.0325 178.263 33.8924 178.627 33.6119C179.019 33.3036 179.299 32.8129 179.466 32.1399C179.662 31.4671 179.76 30.5698 179.76 29.4483V22.0883C179.76 21.0509 179.691 20.2238 179.55 19.6069C179.411 18.9901 179.187 18.5416 178.878 18.2611C178.57 17.9528 178.151 17.7985 177.62 17.7985C177.34 17.7985 177.017 17.8546 176.654 17.9667C176.317 18.0509 175.954 18.191 175.562 18.3873C175.198 18.5555 174.806 18.7798 174.387 19.0603V29.0699C174.387 30.2475 174.47 31.2008 174.638 31.9297C174.834 32.6587 175.128 33.1915 175.52 33.5279C175.939 33.8643 176.486 34.0325 177.158 34.0325Z" fill="#4B4B4B"/>
<path d="M155.208 37.3551C154.256 37.3551 153.415 37.0886 152.688 36.5559C151.96 35.9952 151.387 35.2943 150.967 34.4531C150.547 33.5838 150.337 32.6726 150.337 31.7193C150.337 30.2053 150.589 28.9296 151.093 27.8921C151.596 26.8548 152.282 25.9855 153.15 25.2847C154.046 24.5556 155.067 23.9247 156.215 23.3921C157.391 22.8592 158.623 22.3407 159.91 21.8359V20.1115C159.91 19.1302 159.854 18.3172 159.742 17.6723C159.63 17.0274 159.391 16.5508 159.029 16.2423C158.692 15.9059 158.174 15.7377 157.475 15.7377C156.86 15.7377 156.354 15.8778 155.962 16.1583C155.6 16.4386 155.333 16.8452 155.165 17.3779C154.998 17.8825 154.914 18.4854 154.914 19.1863V20.4059L150.463 20.2377C150.519 17.5461 151.135 15.5695 152.31 14.3077C153.486 13.0179 155.306 12.373 157.769 12.373C160.175 12.373 161.884 13.032 162.891 14.3497C163.898 15.6676 164.403 17.5741 164.403 20.0695V31.1727C164.403 31.9297 164.417 32.6586 164.444 33.3595C164.501 34.0605 164.556 34.7194 164.613 35.3363C164.697 35.9251 164.766 36.4858 164.823 37.0185H160.708C160.624 36.57 160.512 36.0091 160.371 35.3363C160.259 34.6352 160.175 34.0044 160.12 33.4437C159.84 34.397 159.293 35.2943 158.482 36.1353C157.698 36.9484 156.607 37.3551 155.208 37.3551ZM156.971 33.4857C157.418 33.4857 157.839 33.3595 158.231 33.1073C158.623 32.8549 158.972 32.5744 159.28 32.2661C159.587 31.9297 159.799 31.6633 159.91 31.4671V24.5697C159.211 24.9622 158.553 25.3547 157.937 25.7473C157.32 26.1398 156.775 26.5604 156.299 27.0089C155.851 27.4295 155.488 27.9202 155.208 28.4809C154.955 29.0137 154.83 29.6304 154.83 30.3315C154.83 31.3128 155.012 32.0838 155.375 32.6447C155.739 33.2054 156.272 33.4857 156.971 33.4857Z" fill="#4B4B4B"/>
<path d="M131.373 37.0189L136.831 24.2337L131.499 12.71H135.781L139.35 20.4065L142.499 12.71H146.908L141.365 24.7803L146.992 37.0189H142.709L138.888 28.7757L135.613 37.0189H131.373Z" fill="#4B4B4B"/>
<path d="M120.469 44.7579V2.95312H129.706V5.26627H124.962V42.4447H129.706V44.7579H120.469Z" fill="#EE5A00"/>
<path d="M94.5417 37.2293V33.8227C95.3815 33.8227 96.0393 33.6545 96.5152 33.3179C97.019 32.9815 97.3969 32.4208 97.6487 31.6357C97.9287 30.8226 98.1386 29.7431 98.2787 28.3973C98.4186 27.0234 98.5446 25.3131 98.6564 23.2663L99.2023 12.71H111.924V37.0189H107.432V16.1165H103.149L102.771 23.2663C102.631 26.0421 102.421 28.3412 102.141 30.1637C101.889 31.9862 101.484 33.416 100.924 34.4535C100.364 35.4629 99.6081 36.1779 98.6564 36.5985C97.7328 37.0189 96.5291 37.2293 95.0457 37.2293H94.5417Z" fill="#EE5A00"/>
<path d="M83.8814 37.3551C81.9781 37.3551 80.5085 36.9904 79.4728 36.2615C78.4372 35.5045 77.7094 34.4111 77.2895 32.9811C76.8976 31.523 76.7017 29.7427 76.7017 27.6399V22.0883C76.7017 19.9293 76.9117 18.1349 77.3316 16.7049C77.7515 15.275 78.4792 14.1955 79.5149 13.4665C80.5785 12.7376 82.0341 12.373 83.8814 12.373C85.9249 12.373 87.4224 12.7936 88.3741 13.6348C89.3538 14.4759 89.9976 15.6955 90.3055 17.2937C90.6133 18.8638 90.7673 20.7564 90.7673 22.9715V24.9481H81.1943V29.8267C81.1943 30.808 81.2784 31.6072 81.4463 32.2241C81.6422 32.8409 81.9361 33.3035 82.328 33.6119C82.7479 33.8923 83.2797 34.0325 83.9235 34.0325C84.5952 34.0325 85.0991 33.8782 85.435 33.5699C85.7989 33.2335 86.0367 32.7707 86.1488 32.1819C86.2887 31.5652 86.3587 30.8502 86.3587 30.0371V28.5651H90.7253V29.4903C90.7253 31.9297 90.2075 33.8502 89.1718 35.2521C88.1362 36.654 86.3728 37.3551 83.8814 37.3551ZM81.1943 22.5089H86.3587V20.3219C86.3587 19.3125 86.3026 18.4713 86.1907 17.7985C86.0788 17.0974 85.8408 16.5787 85.4769 16.2423C85.1411 15.8778 84.5952 15.6955 83.8395 15.6955C83.1118 15.6955 82.552 15.8639 82.1601 16.2003C81.7961 16.5367 81.5442 17.1115 81.4042 17.9247C81.2643 18.7097 81.1943 19.8032 81.1943 21.2051V22.5089Z" fill="#EE5A00"/>
<path d="M58.4778 37.0189V12.71H65.2796C66.9312 12.71 68.2187 12.9903 69.1423 13.5511C70.0942 14.0838 70.7659 14.7988 71.1578 15.6961C71.5776 16.5652 71.8016 17.5045 71.8296 18.5139C71.8576 19.7195 71.6617 20.799 71.2418 21.7523C70.8219 22.7056 69.9541 23.3784 68.6386 23.7709C69.6463 23.9672 70.4159 24.3878 70.9479 25.0327C71.5077 25.6496 71.8855 26.3926 72.0814 27.2617C72.3054 28.131 72.4174 29.0281 72.4174 29.9533C72.4174 31.3552 72.2074 32.589 71.7875 33.6545C71.3956 34.7198 70.6959 35.5469 69.6882 36.1357C68.7085 36.7245 67.3089 37.0189 65.4896 37.0189H58.4778ZM62.8864 33.6123H64.4819C65.1256 33.6123 65.7134 33.5283 66.2454 33.3601C66.7772 33.1638 67.197 32.7852 67.5049 32.2245C67.8409 31.6638 68.0088 30.8506 68.0088 29.7851C68.0088 28.5235 67.8548 27.6122 67.547 27.0515C67.267 26.4627 66.8751 26.0982 66.3713 25.9579C65.8954 25.8178 65.3356 25.7477 64.6918 25.7477H62.8864V33.6123ZM62.8864 22.5093H65.0697C65.9374 22.5093 66.6232 22.2569 67.1271 21.7523C67.6309 21.2475 67.8828 20.3504 67.8828 19.0605C67.8828 17.911 67.5889 17.112 67.0011 16.6633C66.4133 16.2147 65.6155 15.9905 64.6079 15.9905H62.8864V22.5093Z" fill="#EE5A00"/>
<path d="M46.2638 37.3551C44.3605 37.3551 42.8909 36.9904 41.8552 36.2615C40.8197 35.5045 40.0919 34.4111 39.672 32.9811C39.2802 31.523 39.0842 29.7427 39.0842 27.6399V22.0883C39.0842 19.9293 39.2941 18.1349 39.714 16.7049C40.1339 15.275 40.8616 14.1955 41.8973 13.4665C42.9609 12.7376 44.4165 12.373 46.2638 12.373C48.3073 12.373 49.8048 12.7936 50.7565 13.6348C51.7362 14.4759 52.38 15.6955 52.6879 17.2937C52.9959 18.8638 53.1497 20.7564 53.1497 22.9715V24.9481H43.5767V29.8267C43.5767 30.808 43.6608 31.6072 43.8287 32.2241C44.0246 32.8409 44.3185 33.3035 44.7104 33.6119C45.1303 33.8923 45.6621 34.0325 46.3059 34.0325C46.9776 34.0325 47.4816 33.8782 47.8174 33.5699C48.1813 33.2335 48.4193 32.7707 48.5312 32.1819C48.6711 31.5652 48.7411 30.8502 48.7411 30.0371V28.5651H53.1078V29.4903C53.1078 31.9297 52.5899 33.8502 51.5542 35.2521C50.5186 36.654 48.7552 37.3551 46.2638 37.3551ZM43.5767 22.5089H48.7411V20.3219C48.7411 19.3125 48.6852 18.4713 48.5732 17.7985C48.4613 17.0974 48.2234 16.5787 47.8594 16.2423C47.5235 15.8778 46.9776 15.6955 46.2219 15.6955C45.4942 15.6955 44.9344 15.8639 44.5425 16.2003C44.1786 16.5367 43.9267 17.1115 43.7868 17.9247C43.6467 18.7097 43.5767 19.8032 43.5767 21.2051V22.5089Z" fill="#EE5A00"/>
<path d="M19.5483 45.0095V12.7095H24.0408V14.6441C24.5726 14.0273 25.2165 13.4946 25.9722 13.046C26.728 12.5974 27.6238 12.373 28.6595 12.373C29.919 12.373 30.9128 12.7095 31.6405 13.3824C32.3962 14.0273 32.956 14.8544 33.3199 15.8639C33.6838 16.8452 33.9218 17.8544 34.0337 18.8919C34.1458 19.9013 34.2016 20.7705 34.2016 21.4995V27.3875C34.2016 29.0978 34.0337 30.724 33.6979 32.2661C33.362 33.7801 32.7462 35.0138 31.8504 35.9671C30.9827 36.8923 29.7511 37.3551 28.1555 37.3551C27.2879 37.3551 26.5181 37.1447 25.8462 36.7241C25.1745 36.2756 24.5726 35.7708 24.0408 35.2101V45.0095H19.5483ZM27.2738 33.8223C28.0576 33.8223 28.6174 33.5418 28.9534 32.9811C29.2892 32.3923 29.4991 31.6072 29.5831 30.6259C29.667 29.6445 29.7091 28.5651 29.7091 27.3875V21.4995C29.7091 20.4901 29.6531 19.5649 29.5412 18.7237C29.4292 17.8544 29.1913 17.1675 28.8274 16.6629C28.4635 16.1583 27.8897 15.9059 27.1059 15.9059C26.5181 15.9059 25.9583 16.0321 25.4265 16.2843C24.8946 16.5367 24.4327 16.8311 24.0408 17.1675V32.7287C24.4607 33.0372 24.9366 33.3035 25.4684 33.5279C26.0002 33.7241 26.6021 33.8223 27.2738 33.8223Z" fill="#EE5A00"/>
<path d="M6.50284 37.0189V16.0745H1.96826V12.71H15.572V16.0745H10.9954V37.0189H6.50284Z" fill="#EE5A00"/>
</svg>
