<?xml version="1.0" encoding="UTF-8" standalone="no"?>
<svg
   xmlns:dc="http://purl.org/dc/elements/1.1/"
   xmlns:cc="http://creativecommons.org/ns#"
   xmlns:rdf="http://www.w3.org/1999/02/22-rdf-syntax-ns#"
   xmlns:svg="http://www.w3.org/2000/svg"
   xmlns="http://www.w3.org/2000/svg"
   viewBox="0 0 179.32001 189.91867"
   height="189.91867"
   width="179.32001"
   xml:space="preserve"
   id="svg2"
   version="1.1"><metadata
     id="metadata8"><rdf:RDF><cc:Work
         rdf:about=""><dc:format>image/svg+xml</dc:format><dc:type
           rdf:resource="http://purl.org/dc/dcmitype/StillImage" /></cc:Work></rdf:RDF></metadata><defs
     id="defs6"><clipPath
       id="clipPath14"
       clipPathUnits="userSpaceOnUse"><path
         id="path12"
         d="M 115.42,256 H 249.91 V 398.439 H 115.42 Z" /></clipPath><clipPath
       id="clipPath22"
       clipPathUnits="userSpaceOnUse"><path
         id="path20"
         d="M 0,473.319 H 612 V 0 H 0 Z" /></clipPath></defs><g
     clip-path="url(#clipPath14)"
     transform="matrix(1.3333333,0,0,-1.3333333,-153.89333,531.252)"
     id="g10"><g
       id="g16"><g
         clip-path="url(#clipPath22)"
         id="g18"><g
           transform="translate(246.5876,327.0797)"
           id="g24"><path
             id="path26"
             style="fill:#da2c29;fill-opacity:1;fill-rule:nonzero;stroke:none"
             d="m 0,0 c 0,-35.563 -28.83,-64.394 -64.394,-64.394 -35.563,0 -64.393,28.831 -64.393,64.394 0,35.563 28.83,64.394 64.393,64.394 C -28.83,64.394 0,35.563 0,0" /></g><g
           transform="translate(178.4773,324.7015)"
           id="g28"><path
             id="path30"
             style="fill:#ffffff;fill-opacity:1;fill-rule:nonzero;stroke:none"
             d="m 0,0 h 13.699 c 2.73,0 4.909,0.717 6.537,2.151 1.628,1.434 2.443,3.349 2.443,5.742 v 2.005 c 0,2.395 -0.815,4.289 -2.443,5.68 -1.628,1.393 -3.836,2.089 -6.621,2.089 H 0 v 11.694 h 15.62 c 4.344,0 8.138,-0.765 11.382,-2.296 3.243,-1.532 5.743,-3.711 7.497,-6.537 1.755,-2.825 2.631,-6.132 2.631,-9.92 V 7.267 c 0,-3.814 -0.876,-7.156 -2.631,-10.024 -1.754,-2.867 -4.254,-5.075 -7.497,-6.619 -3.244,-1.546 -7.038,-2.318 -11.382,-2.318 H 0 Z M 6.349,-30.907 H -8.395 V 29.361 H 6.349 Z" /></g><path
           id="path32"
           style="fill:#ffffff;fill-opacity:1;fill-rule:nonzero;stroke:none"
           d="m 167.459,341.283 h -14.438 v 12.739 h 14.438 z" /><g
           transform="translate(494.1995,139.784)"
           id="g34"><path
             id="path36"
             style="fill:#040606;fill-opacity:1;fill-rule:nonzero;stroke:none"
             d="m 0,0 c 0,-35.563 -28.83,-64.394 -64.394,-64.394 -35.563,0 -64.393,28.831 -64.393,64.394 0,35.563 28.83,64.394 64.393,64.394 C -28.83,64.394 0,35.563 0,0" /></g><g
           transform="translate(426.0892,137.4059)"
           id="g38"><path
             id="path40"
             style="fill:#ffffff;fill-opacity:1;fill-rule:nonzero;stroke:none"
             d="m 0,0 h 13.699 c 2.73,0 4.909,0.717 6.537,2.151 1.628,1.434 2.443,3.349 2.443,5.742 v 2.005 c 0,2.395 -0.815,4.289 -2.443,5.68 -1.628,1.393 -3.836,2.089 -6.621,2.089 H 0 v 11.694 h 15.62 c 4.344,0 8.138,-0.765 11.382,-2.296 3.243,-1.532 5.743,-3.711 7.497,-6.537 1.755,-2.826 2.631,-6.132 2.631,-9.92 V 7.267 c 0,-3.814 -0.876,-7.156 -2.631,-10.024 -1.754,-2.867 -4.254,-5.075 -7.497,-6.619 -3.244,-1.546 -7.038,-2.318 -11.382,-2.318 H 0 Z M 6.349,-30.907 H -8.395 V 29.361 H 6.349 Z" /></g><path
           id="path42"
           style="fill:#ffffff;fill-opacity:1;fill-rule:nonzero;stroke:none"
           d="m 415.071,153.988 h -14.438 v 12.739 h 14.438 z" /><g
           transform="translate(483.7826,333.5352)"
           id="g44"><path
             id="path46"
             style="fill:#ffffff;fill-opacity:1;fill-rule:nonzero;stroke:none"
             d="m 0,0 c 0,-35.563 -28.83,-64.394 -64.394,-64.394 -35.563,0 -64.393,28.831 -64.393,64.394 0,35.563 28.83,64.394 64.393,64.394 C -28.83,64.394 0,35.563 0,0" /></g><g
           transform="translate(415.6723,331.157)"
           id="g48"><path
             id="path50"
             style="fill:#284aa5;fill-opacity:1;fill-rule:nonzero;stroke:none"
             d="m 0,0 h 13.699 c 2.73,0 4.909,0.717 6.537,2.151 1.628,1.434 2.443,3.349 2.443,5.742 v 2.005 c 0,2.395 -0.815,4.289 -2.443,5.68 -1.628,1.393 -3.836,2.089 -6.621,2.089 H 0 v 11.694 h 15.62 c 4.344,0 8.138,-0.765 11.382,-2.296 3.243,-1.532 5.743,-3.711 7.497,-6.537 1.755,-2.825 2.631,-6.132 2.631,-9.92 V 7.267 c 0,-3.814 -0.876,-7.156 -2.631,-10.024 -1.754,-2.867 -4.254,-5.075 -7.497,-6.619 -3.244,-1.546 -7.038,-2.318 -11.382,-2.318 H 0 Z M 6.349,-30.907 H -8.395 V 29.361 H 6.349 Z" /></g><path
           id="path52"
           style="fill:#da2c29;fill-opacity:1;fill-rule:nonzero;stroke:none"
           d="m 404.654,347.739 h -14.438 v 12.739 h 14.438 z" /><g
           transform="translate(249.2194,139.784)"
           id="g54"><path
             id="path56"
             style="fill:#284aa5;fill-opacity:1;fill-rule:nonzero;stroke:none"
             d="m 0,0 c 0,-35.563 -28.83,-64.394 -64.394,-64.394 -35.563,0 -64.393,28.831 -64.393,64.394 0,35.563 28.83,64.394 64.393,64.394 C -28.83,64.394 0,35.563 0,0" /></g><g
           transform="translate(181.1091,137.4059)"
           id="g58"><path
             id="path60"
             style="fill:#ffffff;fill-opacity:1;fill-rule:nonzero;stroke:none"
             d="m 0,0 h 13.699 c 2.73,0 4.909,0.717 6.537,2.151 1.628,1.434 2.443,3.349 2.443,5.742 v 2.005 c 0,2.395 -0.815,4.289 -2.443,5.68 -1.628,1.393 -3.836,2.089 -6.621,2.089 H 0 v 11.694 h 15.62 c 4.344,0 8.138,-0.765 11.382,-2.296 3.243,-1.532 5.743,-3.711 7.497,-6.537 1.755,-2.826 2.631,-6.132 2.631,-9.92 V 7.267 c 0,-3.814 -0.876,-7.156 -2.631,-10.024 -1.754,-2.867 -4.254,-5.075 -7.497,-6.619 -3.244,-1.546 -7.038,-2.318 -11.382,-2.318 H 0 Z M 6.349,-30.907 H -8.395 V 29.361 H 6.349 Z" /></g><path
           id="path62"
           style="fill:#ffffff;fill-opacity:1;fill-rule:nonzero;stroke:none"
           d="m 170.09,153.988 h -14.438 v 12.739 h 14.438 z" /></g></g></g></svg>