<svg width="22" height="22" viewBox="0 0 22 22" fill="none" xmlns="http://www.w3.org/2000/svg">
<path d="M11 13.3334L2.83332 21.5C2.52777 21.8056 2.13888 21.9584 1.66666 21.9584C1.19443 21.9584 0.805545 21.8056 0.49999 21.5C0.194434 21.1945 0.0416565 20.8056 0.0416565 20.3334C0.0416565 19.8611 0.194434 19.4722 0.49999 19.1667L8.66666 11L0.49999 2.83335C0.194434 2.5278 0.0416565 2.13891 0.0416565 1.66669C0.0416565 1.19446 0.194434 0.805576 0.49999 0.50002C0.805545 0.194465 1.19443 0.041687 1.66666 0.041687C2.13888 0.041687 2.52777 0.194465 2.83332 0.50002L11 8.66669L19.1667 0.50002C19.4722 0.194465 19.8611 0.041687 20.3333 0.041687C20.8055 0.041687 21.1944 0.194465 21.5 0.50002C21.8055 0.805576 21.9583 1.19446 21.9583 1.66669C21.9583 2.13891 21.8055 2.5278 21.5 2.83335L13.3333 11L21.5 19.1667C21.8055 19.4722 21.9583 19.8611 21.9583 20.3334C21.9583 20.8056 21.8055 21.1945 21.5 21.5C21.1944 21.8056 20.8055 21.9584 20.3333 21.9584C19.8611 21.9584 19.4722 21.8056 19.1667 21.5L11 13.3334Z" fill="#1B2934"/>
</svg>
