<svg width="272" height="40" viewBox="0 0 272 40" fill="none" xmlns="http://www.w3.org/2000/svg">
<g clip-path="url(#clip0_47_4)">
<path d="M173.497 0.274414H6.40261C2.86655 0.274414 0 3.15615 0 6.71096V33.5638C0 37.1186 2.86655 40.0003 6.40261 40.0003H173.497C177.033 40.0003 179.899 37.1186 179.899 33.5638V6.71096C179.899 3.15615 177.033 0.274414 173.497 0.274414Z" fill="#D52B1E"/>
<path d="M265.597 0H191.069C187.532 0 184.666 2.88174 184.666 6.43655V33.2893C184.666 36.8441 187.532 39.7259 191.069 39.7259H265.597C269.133 39.7259 272 36.8441 272 33.2893V6.43655C272 2.88174 269.133 0 265.597 0Z" fill="#0039A6"/>
<path d="M12.4419 33.7052H5.70605V6.01992H12.4419V33.7153V33.7052ZM9.54358 19.5021H15.8048C17.0571 19.5021 18.0467 19.1773 18.794 18.5174C19.5414 17.8575 19.915 16.9742 19.915 15.8778V14.9539C19.915 13.8575 19.5414 12.9844 18.794 12.3448C18.0467 11.7052 17.0369 11.3803 15.7644 11.3803H9.54358V6.00977H16.6834C18.6729 6.00977 20.3998 6.3651 21.8843 7.0656C23.3688 7.76611 24.5099 8.77119 25.3077 10.0707C26.1056 11.3702 26.5095 12.893 26.5095 14.6291V16.162C26.5095 17.9184 26.1056 19.4514 25.3077 20.7712C24.5099 22.091 23.3688 23.1062 21.8843 23.8169C20.3998 24.5275 18.6628 24.8829 16.6834 24.8829H9.54358V19.5123V19.5021Z" fill="white"/>
<path d="M31.67 6.04028H50.1507V11.8982H38.4059V17.157H49.1004V22.3753H38.4059V27.8677H50.4941V33.7256H31.67V6.04028Z" fill="white"/>
<path d="M62.1988 6.01953V16.9434H71.328V6.03984H78.0437V33.7353H71.328V22.8013H62.1988V33.7251H55.4629V6.01953H62.1988Z" fill="white"/>
<path d="M104.956 6.04043V11.8983H97.1903V33.7155H90.4343V11.8881H82.6279V6.03027H104.966L104.956 6.04043Z" fill="white"/>
<path d="M133.455 33.7051H126.719V11.6746H117.711C117.378 20.2736 117.136 25.3396 116.984 26.8726C116.742 29.2888 116.075 31.1162 114.975 32.365C113.874 33.6035 112.369 34.2431 110.46 34.2634H109.814C108.582 34.2634 107.411 34.1721 106.3 33.9995L106.855 28.2431C107.411 28.3751 108.017 28.436 108.673 28.436C109.743 28.4056 110.349 27.7355 110.501 26.4056C110.763 23.8066 111.117 17.0147 111.551 6.01978H133.465V33.7152L133.455 33.7051Z" fill="white"/>
<path d="M146.291 6.01953V22.0094H147.603L144.725 25.0652L156.006 6.02968H161.964V33.7251H155.248V17.9079H154.026L156.682 15.0652L145.614 33.715H139.585V6.01953H146.301H146.291Z" fill="white"/>
<path d="M174.103 28.0098V33.7052H168.074L168.094 28.0098H174.103Z" fill="white"/>
<path d="M214.094 6.04067V11.8985H206.328V33.7158H199.572V11.8884H191.766V6.03052H214.104L214.094 6.04067Z" fill="white"/>
<path d="M218.679 6.04028H237.16V11.8982H225.415V17.157H236.109V22.3753H225.415V27.8677H237.503V33.7256H218.679V6.04028Z" fill="white"/>
<path d="M248.894 6.01978L253.135 15.4208H253.368L257.68 6.01978H265.809L258.064 19.5731L266.294 33.7152H258.124L253.347 24.101H253.135L248.349 33.7152H240.179L248.45 19.5731L240.775 6.01978H248.904H248.894Z" fill="white"/>
</g>
<defs>
<clipPath id="clip0_47_4">
<rect width="272" height="40" fill="white"/>
</clipPath>
</defs>
</svg>
