<svg width="129" height="15" viewBox="0 0 129 15" fill="none" xmlns="http://www.w3.org/2000/svg">
<g clip-path="url(#clip0_39_998)">
<path d="M3.55323 14.704H0V0H3.55323V14.704ZM2.02638 7.16104H5.32513C5.98016 7.16104 6.50796 6.9844 6.8991 6.6359C7.29024 6.2874 7.48816 5.81954 7.48816 5.23234V4.74538C7.48816 4.16295 7.29024 3.69987 6.8991 3.36092C6.50796 3.02196 5.97545 2.8501 5.30628 2.8501H2.02638V0H5.78695C6.83313 0 7.74735 0.186187 8.52963 0.558561C9.3119 0.930936 9.9151 1.46563 10.3345 2.15309C10.7586 2.84055 10.966 3.64736 10.966 4.57352V5.38988C10.966 6.32081 10.7539 7.13717 10.3345 7.83418C9.9151 8.53119 9.3119 9.07066 8.52963 9.4478C7.74735 9.82495 6.83313 10.0111 5.78695 10.0111H2.02638V7.15627V7.16104Z" fill="#0039A6"/>
<path d="M13.6805 0.00976562H23.4165V3.11766H17.229V5.91047H22.8604V8.68418H17.229V11.6011H23.5956V14.709H13.6758V0.00976562H13.6805Z" fill="#0039A6"/>
<path d="M29.7689 0V5.80045H34.5756V0.00954806H38.1147V14.7136H34.5756V8.90356H29.7689V14.704H26.2156V0H29.7689Z" fill="#0039A6"/>
<path d="M52.2992 0.00976562V3.11766H48.204V14.7042H44.6414V3.11766H40.5273V0.00976562H52.2992Z" fill="#0039A6"/>
<path d="M67.3228 14.7041H63.7695V3.00775H59.0193C58.845 7.57172 58.7177 10.2643 58.6376 11.0806C58.5104 12.3648 58.1569 13.334 57.5773 13.9976C56.9977 14.6612 56.206 14.9906 55.1975 15.0049H54.8535C54.2032 15.0049 53.5858 14.9571 53.0015 14.8617L53.2936 11.8063C53.5905 11.8731 53.9063 11.9065 54.2503 11.9065C54.8158 11.8922 55.1362 11.5342 55.2163 10.8276C55.3577 9.44791 55.5415 5.83875 55.7677 0.00488281H67.318V14.7089L67.3228 14.7041Z" fill="#0039A6"/>
<path d="M74.0805 0V8.48822H74.7733L73.2558 10.1066L79.203 0H82.3415V14.704H78.8025V6.30649H78.1568L79.5565 4.7979L73.7224 14.704H70.5414V0H74.0805Z" fill="#0039A6"/>
<path d="M88.7364 11.6776V14.7043H85.5555L85.5649 11.6776H88.7317H88.7364Z" fill="#0039A6"/>
<path d="M101.498 0.00976562V3.11766H97.4027V14.7042H93.84V3.11766H89.726V0.00976562H101.498Z" fill="#D52B1E"/>
<path d="M103.911 0.00976562H113.647V3.11766H107.459V5.91047H113.091V8.68418H107.459V11.6011H113.826V14.709H103.906V0.00976562H103.911Z" fill="#D52B1E"/>
<path d="M119.834 0L122.068 4.99363H122.19L124.462 0H128.746L124.66 7.19446L128.995 14.704H124.688L122.172 9.60057H122.063L119.537 14.704H115.23L119.584 7.19446L115.541 0H119.825L119.834 0Z" fill="#D52B1E"/>
</g>
<defs>
<clipPath id="clip0_39_998">
<rect width="129" height="15" fill="white"/>
</clipPath>
</defs>
</svg>
