<svg width="16" height="16" viewBox="0 0 16 16" fill="none" xmlns="http://www.w3.org/2000/svg">
<path d="M2.66659 13.3337C2.29992 13.3337 1.98603 13.2031 1.72492 12.942C1.46381 12.6809 1.33325 12.367 1.33325 12.0003V4.00033C1.33325 3.63366 1.46381 3.31977 1.72492 3.05866C1.98603 2.79755 2.29992 2.66699 2.66659 2.66699H13.3333C13.6999 2.66699 14.0138 2.79755 14.2749 3.05866C14.536 3.31977 14.6666 3.63366 14.6666 4.00033V12.0003C14.6666 12.367 14.536 12.6809 14.2749 12.942C14.0138 13.2031 13.6999 13.3337 13.3333 13.3337H2.66659ZM13.3333 5.33366L8.34992 8.45033C8.29436 8.48366 8.23603 8.50866 8.17492 8.52533C8.11381 8.54199 8.05547 8.55033 7.99992 8.55033C7.94436 8.55033 7.88603 8.54199 7.82492 8.52533C7.76381 8.50866 7.70547 8.48366 7.64992 8.45033L2.66659 5.33366V12.0003H13.3333V5.33366ZM7.99992 7.33366L13.3333 4.00033H2.66659L7.99992 7.33366ZM2.66659 5.50033V4.51699V4.53366V4.52533V5.50033Z" fill="#0039A6"/>
</svg>
