<svg width="16" height="16" viewBox="0 0 16 16" fill="none" xmlns="http://www.w3.org/2000/svg">
<path d="M7.99992 14.6663C7.08881 14.6663 6.2277 14.4913 5.41658 14.1413C4.60547 13.7913 3.89714 13.3136 3.29159 12.708C2.68603 12.1025 2.20825 11.3941 1.85825 10.583C1.50825 9.7719 1.33325 8.91079 1.33325 7.99967C1.33325 7.07745 1.50825 6.21356 1.85825 5.40801C2.20825 4.60245 2.68603 3.8969 3.29159 3.29134C3.89714 2.68579 4.60547 2.20801 5.41658 1.85801C6.2277 1.50801 7.08881 1.33301 7.99992 1.33301C8.92214 1.33301 9.78603 1.50801 10.5916 1.85801C11.3971 2.20801 12.1027 2.68579 12.7083 3.29134C13.3138 3.8969 13.7916 4.60245 14.1416 5.40801C14.4916 6.21356 14.6666 7.07745 14.6666 7.99967C14.6666 8.91079 14.4916 9.7719 14.1416 10.583C13.7916 11.3941 13.3138 12.1025 12.7083 12.708C12.1027 13.3136 11.3971 13.7913 10.5916 14.1413C9.78603 14.4913 8.92214 14.6663 7.99992 14.6663ZM7.99992 13.2997C8.28881 12.8997 8.53881 12.483 8.74992 12.0497C8.96103 11.6163 9.13325 11.1552 9.26658 10.6663H6.73325C6.86658 11.1552 7.03881 11.6163 7.24992 12.0497C7.46103 12.483 7.71103 12.8997 7.99992 13.2997ZM6.26658 13.033C6.06659 12.6663 5.89158 12.2858 5.74159 11.8913C5.59159 11.4969 5.46659 11.0886 5.36659 10.6663H3.39992C3.72214 11.2219 4.12492 11.7052 4.60825 12.1163C5.09159 12.5275 5.64436 12.833 6.26658 13.033ZM9.73325 13.033C10.3555 12.833 10.9083 12.5275 11.3916 12.1163C11.8749 11.7052 12.2777 11.2219 12.5999 10.6663H10.6333C10.5333 11.0886 10.4083 11.4969 10.2583 11.8913C10.1083 12.2858 9.93325 12.6663 9.73325 13.033ZM2.83325 9.33301H5.09992C5.06659 9.11079 5.04158 8.89134 5.02492 8.67467C5.00825 8.45801 4.99992 8.23301 4.99992 7.99967C4.99992 7.76634 5.00825 7.54134 5.02492 7.32467C5.04158 7.10801 5.06659 6.88856 5.09992 6.66634H2.83325C2.7777 6.88856 2.73603 7.10801 2.70825 7.32467C2.68047 7.54134 2.66659 7.76634 2.66659 7.99967C2.66659 8.23301 2.68047 8.45801 2.70825 8.67467C2.73603 8.89134 2.7777 9.11079 2.83325 9.33301ZM6.43325 9.33301H9.56658C9.59992 9.11079 9.62492 8.89134 9.64158 8.67467C9.65825 8.45801 9.66658 8.23301 9.66658 7.99967C9.66658 7.76634 9.65825 7.54134 9.64158 7.32467C9.62492 7.10801 9.59992 6.88856 9.56658 6.66634H6.43325C6.39992 6.88856 6.37492 7.10801 6.35825 7.32467C6.34159 7.54134 6.33325 7.76634 6.33325 7.99967C6.33325 8.23301 6.34159 8.45801 6.35825 8.67467C6.37492 8.89134 6.39992 9.11079 6.43325 9.33301ZM10.8999 9.33301H13.1666C13.2221 9.11079 13.2638 8.89134 13.2916 8.67467C13.3194 8.45801 13.3333 8.23301 13.3333 7.99967C13.3333 7.76634 13.3194 7.54134 13.2916 7.32467C13.2638 7.10801 13.2221 6.88856 13.1666 6.66634H10.8999C10.9333 6.88856 10.9583 7.10801 10.9749 7.32467C10.9916 7.54134 10.9999 7.76634 10.9999 7.99967C10.9999 8.23301 10.9916 8.45801 10.9749 8.67467C10.9583 8.89134 10.9333 9.11079 10.8999 9.33301ZM10.6333 5.33301H12.5999C12.2777 4.77745 11.8749 4.29412 11.3916 3.88301C10.9083 3.4719 10.3555 3.16634 9.73325 2.96634C9.93325 3.33301 10.1083 3.71356 10.2583 4.10801C10.4083 4.50245 10.5333 4.91079 10.6333 5.33301ZM6.73325 5.33301H9.26658C9.13325 4.84412 8.96103 4.38301 8.74992 3.94967C8.53881 3.51634 8.28881 3.09967 7.99992 2.69967C7.71103 3.09967 7.46103 3.51634 7.24992 3.94967C7.03881 4.38301 6.86658 4.84412 6.73325 5.33301ZM3.39992 5.33301H5.36659C5.46659 4.91079 5.59159 4.50245 5.74159 4.10801C5.89158 3.71356 6.06659 3.33301 6.26658 2.96634C5.64436 3.16634 5.09159 3.4719 4.60825 3.88301C4.12492 4.29412 3.72214 4.77745 3.39992 5.33301Z" fill="#0039A6"/>
</svg>
